<svg xmlns="http://www.w3.org/2000/svg" xmlns:xlink="http://www.w3.org/1999/xlink" width="500" zoomAndPan="magnify" viewBox="0 0 375 374.999991" height="500" preserveAspectRatio="xMidYMid meet" version="1.0"><defs><g/><clipPath id="d8d044ca06"><path d="M 152 149.859375 L 194 149.859375 L 194 235.683594 L 152 235.683594 Z M 152 149.859375 " clip-rule="nonzero"/></clipPath><clipPath id="4d63dfd0cf"><path d="M 176 86.574219 L 199 86.574219 L 199 118 L 176 118 Z M 176 86.574219 " clip-rule="nonzero"/></clipPath><clipPath id="1cd4988f9e"><path d="M 231.457031 150 L 261.960938 150 L 261.960938 172.597656 L 231.457031 172.597656 Z M 231.457031 150 " clip-rule="nonzero"/></clipPath><clipPath id="0202290d53"><path d="M 112.714844 150 L 144 150 L 144 173 L 112.714844 173 Z M 112.714844 150 " clip-rule="nonzero"/></clipPath></defs><rect x="-37.5" width="450" fill="#ffffff" y="-37.499999" height="449.999989" fill-opacity="1"/><rect x="-37.5" width="450" fill="#ffffff" y="-37.499999" height="449.999989" fill-opacity="1"/><rect x="-37.5" width="450" fill="#63a731" y="-37.499999" height="449.999989" fill-opacity="1"/><path fill="#ffffff" d="M 215.824219 148.105469 C 215.824219 148.105469 218.726562 160.488281 207.710938 165.308594 C 204.304688 166.796875 200.859375 168.515625 195.617188 169.449219 C 195.617188 169.449219 204.664062 188.121094 190.589844 212.144531 C 190.589844 212.144531 204.925781 198.269531 205.300781 178.609375 C 205.300781 178.609375 206.691406 176.320312 215.824219 166.828125 C 219.320312 163.191406 220.078125 153.722656 215.824219 148.105469 " fill-opacity="1" fill-rule="nonzero"/><g clip-path="url(#d8d044ca06)"><path fill="#ffffff" d="M 154.632812 149.921875 C 154.632812 149.921875 153 165.878906 171.429688 167.523438 C 188.011719 169.007812 193.570312 168.273438 193.570312 177.316406 C 193.570312 187.304688 192.316406 220.703125 156.179688 235.683594 C 156.179688 235.683594 189.492188 213.402344 181.273438 182.503906 C 177.890625 169.808594 160.964844 178.558594 154.703125 166.949219 C 149.625 157.535156 154.632812 149.921875 154.632812 149.921875 " fill-opacity="1" fill-rule="nonzero"/></g><path fill="#ffffff" d="M 196.253906 158.960938 C 197.152344 162.589844 195.394531 166.148438 192.324219 166.910156 C 189.253906 167.671875 186.035156 165.351562 185.132812 161.722656 C 184.230469 158.097656 185.992188 154.539062 189.0625 153.777344 C 192.132812 153.011719 195.351562 155.335938 196.253906 158.960938 " fill-opacity="1" fill-rule="nonzero"/><g clip-path="url(#4d63dfd0cf)"><path fill="#ffffff" d="M 187.234375 86.703125 C 187.234375 86.703125 176.410156 100.519531 176.410156 107.820312 C 176.410156 113.539062 180.390625 116.246094 184.199219 117.148438 C 185.03125 107.3125 187.234375 95.113281 187.234375 95.113281 C 187.234375 95.113281 189.417969 107.199219 190.253906 117.011719 C 193.722656 115.988281 198.058594 113.277344 198.058594 107.820312 C 198.058594 100.519531 187.234375 86.703125 187.234375 86.703125 " fill-opacity="1" fill-rule="nonzero"/></g><path fill="#ffffff" d="M 240.042969 108.480469 C 240.042969 108.480469 222.617188 110.59375 217.457031 115.757812 C 213.414062 119.800781 214.3125 124.527344 216.367188 127.863281 C 223.914062 121.496094 234.097656 114.429688 234.097656 114.429688 C 234.097656 114.429688 227.09375 124.515625 220.75 132.050781 C 223.925781 133.777344 228.90625 134.925781 232.765625 131.066406 C 237.929688 125.902344 240.042969 108.480469 240.042969 108.480469 " fill-opacity="1" fill-rule="nonzero"/><g clip-path="url(#1cd4988f9e)"><path fill="#ffffff" d="M 261.988281 161.222656 C 261.988281 161.222656 248.167969 150.394531 240.867188 150.394531 C 235.148438 150.394531 232.441406 154.378906 231.539062 158.1875 C 241.375 159.019531 253.574219 161.222656 253.574219 161.222656 C 253.574219 161.222656 241.492188 163.402344 231.675781 164.246094 C 232.699219 167.714844 235.414062 172.046875 240.867188 172.046875 C 248.171875 172.046875 261.988281 161.222656 261.988281 161.222656 " fill-opacity="1" fill-rule="nonzero"/></g><g clip-path="url(#0202290d53)"><path fill="#ffffff" d="M 112.714844 161.453125 C 112.714844 161.453125 126.53125 172.28125 133.832031 172.28125 C 139.550781 172.28125 142.257812 168.296875 143.160156 164.488281 C 133.324219 163.65625 121.125 161.453125 121.125 161.453125 C 121.125 161.453125 133.210938 159.273438 143.023438 158.429688 C 142 154.960938 139.289062 150.628906 133.828125 150.628906 C 126.53125 150.628906 112.714844 161.453125 112.714844 161.453125 " fill-opacity="1" fill-rule="nonzero"/></g><path fill="#ffffff" d="M 134.492188 108.644531 C 134.492188 108.644531 136.609375 126.070312 141.769531 131.234375 C 145.816406 135.277344 150.542969 134.375 153.875 132.316406 C 147.507812 124.777344 140.441406 114.589844 140.441406 114.589844 C 140.441406 114.589844 150.527344 121.59375 158.0625 127.9375 C 159.789062 124.761719 160.941406 119.78125 157.078125 115.921875 C 151.917969 110.757812 134.492188 108.644531 134.492188 108.644531 " fill-opacity="1" fill-rule="nonzero"/><g fill="#ffffff" fill-opacity="1"><g transform="translate(71.015057, 265.279552)"><g><path d="M 14.03125 0 L 14.015625 -8.1875 L 10 -1.4375 L 8.578125 -1.4375 L 4.578125 -8.015625 L 4.578125 0 L 1.625 0 L 1.625 -13.640625 L 4.234375 -13.640625 L 9.328125 -5.15625 L 14.359375 -13.640625 L 16.953125 -13.640625 L 16.984375 0 Z M 14.03125 0 "/></g></g></g><g fill="#ffffff" fill-opacity="1"><g transform="translate(91.777209, 265.279552)"><g><path d="M 12.171875 -2.53125 L 12.171875 0 L 1.625 0 L 1.625 -13.640625 L 11.921875 -13.640625 L 11.921875 -11.109375 L 4.75 -11.109375 L 4.75 -8.140625 L 11.09375 -8.140625 L 11.09375 -5.6875 L 4.75 -5.6875 L 4.75 -2.53125 Z M 12.171875 -2.53125 "/></g></g></g><g fill="#ffffff" fill-opacity="1"><g transform="translate(107.008009, 265.279552)"><g><path d="M 10.59375 -2.921875 L 4.265625 -2.921875 L 3.0625 0 L -0.171875 0 L 5.90625 -13.640625 L 9.015625 -13.640625 L 15.125 0 L 11.8125 0 Z M 9.609375 -5.3125 L 7.4375 -10.546875 L 5.28125 -5.3125 Z M 9.609375 -5.3125 "/></g></g></g><g fill="#ffffff" fill-opacity="1"><g transform="translate(124.089078, 265.279552)"><g><path d="M 1.625 -13.640625 L 4.78125 -13.640625 L 4.78125 -2.578125 L 11.609375 -2.578125 L 11.609375 0 L 1.625 0 Z M 1.625 -13.640625 "/></g></g></g><g fill="#ffffff" fill-opacity="1"><g transform="translate(138.014941, 265.279552)"><g><path d="M 6.09375 0.234375 C 5.019531 0.234375 3.976562 0.0859375 2.96875 -0.203125 C 1.96875 -0.492188 1.160156 -0.875 0.546875 -1.34375 L 1.625 -3.71875 C 2.207031 -3.289062 2.898438 -2.945312 3.703125 -2.6875 C 4.503906 -2.425781 5.3125 -2.296875 6.125 -2.296875 C 7.019531 -2.296875 7.679688 -2.425781 8.109375 -2.6875 C 8.535156 -2.957031 8.75 -3.316406 8.75 -3.765625 C 8.75 -4.085938 8.617188 -4.351562 8.359375 -4.5625 C 8.109375 -4.78125 7.785156 -4.953125 7.390625 -5.078125 C 6.992188 -5.210938 6.457031 -5.359375 5.78125 -5.515625 C 4.75 -5.765625 3.898438 -6.007812 3.234375 -6.25 C 2.566406 -6.5 1.992188 -6.894531 1.515625 -7.4375 C 1.046875 -7.988281 0.8125 -8.71875 0.8125 -9.625 C 0.8125 -10.414062 1.023438 -11.132812 1.453125 -11.78125 C 1.890625 -12.425781 2.539062 -12.9375 3.40625 -13.3125 C 4.269531 -13.6875 5.320312 -13.875 6.5625 -13.875 C 7.4375 -13.875 8.285156 -13.769531 9.109375 -13.5625 C 9.941406 -13.351562 10.671875 -13.054688 11.296875 -12.671875 L 10.328125 -10.265625 C 9.066406 -10.984375 7.804688 -11.34375 6.546875 -11.34375 C 5.660156 -11.34375 5.003906 -11.195312 4.578125 -10.90625 C 4.160156 -10.625 3.953125 -10.25 3.953125 -9.78125 C 3.953125 -9.3125 4.195312 -8.960938 4.6875 -8.734375 C 5.175781 -8.503906 5.921875 -8.28125 6.921875 -8.0625 C 7.953125 -7.820312 8.800781 -7.578125 9.46875 -7.328125 C 10.132812 -7.078125 10.703125 -6.6875 11.171875 -6.15625 C 11.648438 -5.625 11.890625 -4.90625 11.890625 -4 C 11.890625 -3.21875 11.671875 -2.503906 11.234375 -1.859375 C 10.796875 -1.210938 10.140625 -0.703125 9.265625 -0.328125 C 8.398438 0.046875 7.34375 0.234375 6.09375 0.234375 Z M 6.09375 0.234375 "/></g></g></g><g fill="#ffffff" fill-opacity="1"><g transform="translate(152.603004, 265.279552)"><g/></g></g><g fill="#ffffff" fill-opacity="1"><g transform="translate(160.276879, 265.279552)"><g><path d="M 8.21875 0.234375 C 6.800781 0.234375 5.523438 -0.0664062 4.390625 -0.671875 C 3.253906 -1.285156 2.363281 -2.128906 1.71875 -3.203125 C 1.082031 -4.273438 0.765625 -5.476562 0.765625 -6.8125 C 0.765625 -8.15625 1.082031 -9.363281 1.71875 -10.4375 C 2.363281 -11.507812 3.253906 -12.347656 4.390625 -12.953125 C 5.523438 -13.566406 6.800781 -13.875 8.21875 -13.875 C 9.632812 -13.875 10.90625 -13.566406 12.03125 -12.953125 C 13.164062 -12.347656 14.054688 -11.507812 14.703125 -10.4375 C 15.359375 -9.363281 15.6875 -8.15625 15.6875 -6.8125 C 15.6875 -5.476562 15.359375 -4.273438 14.703125 -3.203125 C 14.054688 -2.128906 13.164062 -1.285156 12.03125 -0.671875 C 10.90625 -0.0664062 9.632812 0.234375 8.21875 0.234375 Z M 8.21875 -2.453125 C 9.03125 -2.453125 9.757812 -2.632812 10.40625 -3 C 11.050781 -3.375 11.554688 -3.890625 11.921875 -4.546875 C 12.296875 -5.210938 12.484375 -5.96875 12.484375 -6.8125 C 12.484375 -7.664062 12.296875 -8.421875 11.921875 -9.078125 C 11.554688 -9.742188 11.050781 -10.257812 10.40625 -10.625 C 9.757812 -11 9.03125 -11.1875 8.21875 -11.1875 C 7.414062 -11.1875 6.6875 -11 6.03125 -10.625 C 5.382812 -10.257812 4.875 -9.742188 4.5 -9.078125 C 4.132812 -8.421875 3.953125 -7.664062 3.953125 -6.8125 C 3.953125 -5.96875 4.132812 -5.210938 4.5 -4.546875 C 4.875 -3.890625 5.382812 -3.375 6.03125 -3 C 6.6875 -2.632812 7.414062 -2.453125 8.21875 -2.453125 Z M 8.21875 -2.453125 "/></g></g></g><g fill="#ffffff" fill-opacity="1"><g transform="translate(178.877126, 265.279552)"><g><path d="M 14.125 -13.640625 L 14.125 0 L 11.53125 0 L 4.734375 -8.28125 L 4.734375 0 L 1.625 0 L 1.625 -13.640625 L 4.234375 -13.640625 L 11.015625 -5.359375 L 11.015625 -13.640625 Z M 14.125 -13.640625 "/></g></g></g><g fill="#ffffff" fill-opacity="1"><g transform="translate(196.776222, 265.279552)"><g/></g></g><g fill="#ffffff" fill-opacity="1"><g transform="translate(204.450103, 265.279552)"><g><path d="M 22.234375 -13.640625 L 17.765625 0 L 14.375 0 L 11.375 -9.234375 L 8.28125 0 L 4.90625 0 L 0.421875 -13.640625 L 3.703125 -13.640625 L 6.78125 -4.046875 L 10 -13.640625 L 12.921875 -13.640625 L 16.03125 -3.96875 L 19.21875 -13.640625 Z M 22.234375 -13.640625 "/></g></g></g><g fill="#ffffff" fill-opacity="1"><g transform="translate(229.263387, 265.279552)"><g><path d="M 14.125 -13.640625 L 14.125 0 L 10.96875 0 L 10.96875 -5.59375 L 4.78125 -5.59375 L 4.78125 0 L 1.625 0 L 1.625 -13.640625 L 4.78125 -13.640625 L 4.78125 -8.265625 L 10.96875 -8.265625 L 10.96875 -13.640625 Z M 14.125 -13.640625 "/></g></g></g><g fill="#ffffff" fill-opacity="1"><g transform="translate(247.162483, 265.279552)"><g><path d="M 12.171875 -2.53125 L 12.171875 0 L 1.625 0 L 1.625 -13.640625 L 11.921875 -13.640625 L 11.921875 -11.109375 L 4.75 -11.109375 L 4.75 -8.140625 L 11.09375 -8.140625 L 11.09375 -5.6875 L 4.75 -5.6875 L 4.75 -2.53125 Z M 12.171875 -2.53125 "/></g></g></g><g fill="#ffffff" fill-opacity="1"><g transform="translate(262.393287, 265.279552)"><g><path d="M 12.171875 -2.53125 L 12.171875 0 L 1.625 0 L 1.625 -13.640625 L 11.921875 -13.640625 L 11.921875 -11.109375 L 4.75 -11.109375 L 4.75 -8.140625 L 11.09375 -8.140625 L 11.09375 -5.6875 L 4.75 -5.6875 L 4.75 -2.53125 Z M 12.171875 -2.53125 "/></g></g></g><g fill="#ffffff" fill-opacity="1"><g transform="translate(277.62409, 265.279552)"><g><path d="M 1.625 -13.640625 L 4.78125 -13.640625 L 4.78125 -2.578125 L 11.609375 -2.578125 L 11.609375 0 L 1.625 0 Z M 1.625 -13.640625 "/></g></g></g><g fill="#ffffff" fill-opacity="1"><g transform="translate(291.549947, 265.279552)"><g><path d="M 6.09375 0.234375 C 5.019531 0.234375 3.976562 0.0859375 2.96875 -0.203125 C 1.96875 -0.492188 1.160156 -0.875 0.546875 -1.34375 L 1.625 -3.71875 C 2.207031 -3.289062 2.898438 -2.945312 3.703125 -2.6875 C 4.503906 -2.425781 5.3125 -2.296875 6.125 -2.296875 C 7.019531 -2.296875 7.679688 -2.425781 8.109375 -2.6875 C 8.535156 -2.957031 8.75 -3.316406 8.75 -3.765625 C 8.75 -4.085938 8.617188 -4.351562 8.359375 -4.5625 C 8.109375 -4.78125 7.785156 -4.953125 7.390625 -5.078125 C 6.992188 -5.210938 6.457031 -5.359375 5.78125 -5.515625 C 4.75 -5.765625 3.898438 -6.007812 3.234375 -6.25 C 2.566406 -6.5 1.992188 -6.894531 1.515625 -7.4375 C 1.046875 -7.988281 0.8125 -8.71875 0.8125 -9.625 C 0.8125 -10.414062 1.023438 -11.132812 1.453125 -11.78125 C 1.890625 -12.425781 2.539062 -12.9375 3.40625 -13.3125 C 4.269531 -13.6875 5.320312 -13.875 6.5625 -13.875 C 7.4375 -13.875 8.285156 -13.769531 9.109375 -13.5625 C 9.941406 -13.351562 10.671875 -13.054688 11.296875 -12.671875 L 10.328125 -10.265625 C 9.066406 -10.984375 7.804688 -11.34375 6.546875 -11.34375 C 5.660156 -11.34375 5.003906 -11.195312 4.578125 -10.90625 C 4.160156 -10.625 3.953125 -10.25 3.953125 -9.78125 C 3.953125 -9.3125 4.195312 -8.960938 4.6875 -8.734375 C 5.175781 -8.503906 5.921875 -8.28125 6.921875 -8.0625 C 7.953125 -7.820312 8.800781 -7.578125 9.46875 -7.328125 C 10.132812 -7.078125 10.703125 -6.6875 11.171875 -6.15625 C 11.648438 -5.625 11.890625 -4.90625 11.890625 -4 C 11.890625 -3.21875 11.671875 -2.503906 11.234375 -1.859375 C 10.796875 -1.210938 10.140625 -0.703125 9.265625 -0.328125 C 8.398438 0.046875 7.34375 0.234375 6.09375 0.234375 Z M 6.09375 0.234375 "/></g></g></g><g fill="#ffffff" fill-opacity="1"><g transform="translate(95.964519, 287.315636)"><g><path d="M 3.765625 0.046875 C 3.140625 0.046875 2.578125 -0.0859375 2.078125 -0.359375 C 1.578125 -0.640625 1.179688 -1.023438 0.890625 -1.515625 C 0.609375 -2.003906 0.46875 -2.550781 0.46875 -3.15625 C 0.46875 -3.757812 0.609375 -4.304688 0.890625 -4.796875 C 1.179688 -5.285156 1.578125 -5.664062 2.078125 -5.9375 C 2.585938 -6.21875 3.15625 -6.359375 3.78125 -6.359375 C 4.25 -6.359375 4.679688 -6.28125 5.078125 -6.125 C 5.472656 -5.96875 5.804688 -5.742188 6.078125 -5.453125 L 5.65625 -5.015625 C 5.164062 -5.515625 4.546875 -5.765625 3.796875 -5.765625 C 3.296875 -5.765625 2.84375 -5.648438 2.4375 -5.421875 C 2.03125 -5.191406 1.707031 -4.878906 1.46875 -4.484375 C 1.238281 -4.085938 1.125 -3.644531 1.125 -3.15625 C 1.125 -2.664062 1.238281 -2.21875 1.46875 -1.8125 C 1.707031 -1.414062 2.03125 -1.101562 2.4375 -0.875 C 2.84375 -0.65625 3.296875 -0.546875 3.796875 -0.546875 C 4.554688 -0.546875 5.175781 -0.796875 5.65625 -1.296875 L 6.078125 -0.875 C 5.804688 -0.570312 5.46875 -0.34375 5.0625 -0.1875 C 4.664062 -0.03125 4.234375 0.046875 3.765625 0.046875 Z M 3.765625 0.046875 "/></g></g></g><g fill="#ffffff" fill-opacity="1"><g transform="translate(105.746185, 287.315636)"><g><path d="M 6.296875 -6.3125 L 6.296875 0 L 5.640625 0 L 5.640625 -2.90625 L 1.6875 -2.90625 L 1.6875 0 L 1.03125 0 L 1.03125 -6.3125 L 1.6875 -6.3125 L 1.6875 -3.5 L 5.640625 -3.5 L 5.640625 -6.3125 Z M 6.296875 -6.3125 "/></g></g></g><g fill="#ffffff" fill-opacity="1"><g transform="translate(116.374944, 287.315636)"><g><path d="M 4.984375 -1.6875 L 1.46875 -1.6875 L 0.71875 0 L 0.015625 0 L 2.90625 -6.3125 L 3.5625 -6.3125 L 6.453125 0 L 5.75 0 Z M 4.734375 -2.234375 L 3.234375 -5.609375 L 1.71875 -2.234375 Z M 4.734375 -2.234375 "/></g></g></g><g fill="#ffffff" fill-opacity="1"><g transform="translate(126.138587, 287.315636)"><g><path d="M 5.34375 0 L 3.890625 -2.03125 C 3.734375 -2.007812 3.566406 -2 3.390625 -2 L 1.6875 -2 L 1.6875 0 L 1.03125 0 L 1.03125 -6.3125 L 3.390625 -6.3125 C 4.191406 -6.3125 4.820312 -6.117188 5.28125 -5.734375 C 5.738281 -5.347656 5.96875 -4.816406 5.96875 -4.140625 C 5.96875 -3.648438 5.84375 -3.234375 5.59375 -2.890625 C 5.34375 -2.554688 4.988281 -2.3125 4.53125 -2.15625 L 6.0625 0 Z M 3.375 -2.5625 C 4 -2.5625 4.472656 -2.703125 4.796875 -2.984375 C 5.128906 -3.265625 5.296875 -3.648438 5.296875 -4.140625 C 5.296875 -4.648438 5.128906 -5.039062 4.796875 -5.3125 C 4.472656 -5.59375 4 -5.734375 3.375 -5.734375 L 1.6875 -5.734375 L 1.6875 -2.5625 Z M 3.375 -2.5625 "/></g></g></g><g fill="#ffffff" fill-opacity="1"><g transform="translate(135.956301, 287.315636)"><g><path d="M 1.03125 -6.3125 L 1.6875 -6.3125 L 1.6875 0 L 1.03125 0 Z M 1.03125 -6.3125 "/></g></g></g><g fill="#ffffff" fill-opacity="1"><g transform="translate(141.980093, 287.315636)"><g><path d="M 2.25 -5.734375 L 0.03125 -5.734375 L 0.03125 -6.3125 L 5.140625 -6.3125 L 5.140625 -5.734375 L 2.921875 -5.734375 L 2.921875 0 L 2.25 0 Z M 2.25 -5.734375 "/></g></g></g><g fill="#ffffff" fill-opacity="1"><g transform="translate(150.455061, 287.315636)"><g><path d="M 3.1875 -2.1875 L 3.1875 0 L 2.53125 0 L 2.53125 -2.1875 L 0.015625 -6.3125 L 0.71875 -6.3125 L 2.890625 -2.765625 L 5.046875 -6.3125 L 5.71875 -6.3125 Z M 3.1875 -2.1875 "/></g></g></g><g fill="#ffffff" fill-opacity="1"><g transform="translate(159.479745, 287.315636)"><g/></g></g><g fill="#ffffff" fill-opacity="1"><g transform="translate(165.143071, 287.315636)"><g><path d="M 5.546875 0.09375 L 4.671875 -0.796875 C 4.140625 -0.234375 3.4375 0.046875 2.5625 0.046875 C 2.15625 0.046875 1.789062 -0.0195312 1.46875 -0.15625 C 1.144531 -0.289062 0.890625 -0.476562 0.703125 -0.71875 C 0.523438 -0.957031 0.4375 -1.234375 0.4375 -1.546875 C 0.4375 -1.929688 0.554688 -2.269531 0.796875 -2.5625 C 1.035156 -2.863281 1.445312 -3.179688 2.03125 -3.515625 C 1.726562 -3.828125 1.519531 -4.09375 1.40625 -4.3125 C 1.289062 -4.53125 1.234375 -4.765625 1.234375 -5.015625 C 1.234375 -5.410156 1.375 -5.734375 1.65625 -5.984375 C 1.945312 -6.234375 2.335938 -6.359375 2.828125 -6.359375 C 3.273438 -6.359375 3.628906 -6.242188 3.890625 -6.015625 C 4.160156 -5.796875 4.296875 -5.492188 4.296875 -5.109375 C 4.296875 -4.796875 4.191406 -4.515625 3.984375 -4.265625 C 3.773438 -4.015625 3.410156 -3.738281 2.890625 -3.4375 L 4.625 -1.65625 C 4.8125 -1.988281 4.953125 -2.390625 5.046875 -2.859375 L 5.578125 -2.703125 C 5.460938 -2.140625 5.273438 -1.65625 5.015625 -1.25 L 5.921875 -0.328125 Z M 2.828125 -5.875 C 2.515625 -5.875 2.269531 -5.796875 2.09375 -5.640625 C 1.914062 -5.484375 1.828125 -5.273438 1.828125 -5.015625 C 1.828125 -4.828125 1.875 -4.648438 1.96875 -4.484375 C 2.070312 -4.316406 2.265625 -4.085938 2.546875 -3.796875 C 3.003906 -4.066406 3.316406 -4.296875 3.484375 -4.484375 C 3.660156 -4.671875 3.75 -4.875 3.75 -5.09375 C 3.75 -5.332031 3.664062 -5.519531 3.5 -5.65625 C 3.34375 -5.800781 3.117188 -5.875 2.828125 -5.875 Z M 2.59375 -0.484375 C 3.289062 -0.484375 3.859375 -0.71875 4.296875 -1.1875 L 2.390625 -3.140625 C 1.890625 -2.859375 1.546875 -2.601562 1.359375 -2.375 C 1.171875 -2.144531 1.078125 -1.890625 1.078125 -1.609375 C 1.078125 -1.265625 1.210938 -0.988281 1.484375 -0.78125 C 1.765625 -0.582031 2.132812 -0.484375 2.59375 -0.484375 Z M 2.59375 -0.484375 "/></g></g></g><g fill="#ffffff" fill-opacity="1"><g transform="translate(174.474148, 287.315636)"><g/></g></g><g fill="#ffffff" fill-opacity="1"><g transform="translate(180.137474, 287.315636)"><g><path d="M 1.6875 -5.734375 L 1.6875 -3.25 L 4.953125 -3.25 L 4.953125 -2.671875 L 1.6875 -2.671875 L 1.6875 0 L 1.03125 0 L 1.03125 -6.3125 L 5.359375 -6.3125 L 5.359375 -5.734375 Z M 1.6875 -5.734375 "/></g></g></g><g fill="#ffffff" fill-opacity="1"><g transform="translate(189.144134, 287.315636)"><g><path d="M 3.5625 0.046875 C 2.75 0.046875 2.113281 -0.1875 1.65625 -0.65625 C 1.195312 -1.125 0.96875 -1.804688 0.96875 -2.703125 L 0.96875 -6.3125 L 1.640625 -6.3125 L 1.640625 -2.71875 C 1.640625 -1.988281 1.800781 -1.441406 2.125 -1.078125 C 2.457031 -0.722656 2.9375 -0.546875 3.5625 -0.546875 C 4.195312 -0.546875 4.679688 -0.722656 5.015625 -1.078125 C 5.347656 -1.441406 5.515625 -1.988281 5.515625 -2.71875 L 5.515625 -6.3125 L 6.15625 -6.3125 L 6.15625 -2.703125 C 6.15625 -1.804688 5.925781 -1.125 5.46875 -0.65625 C 5.019531 -0.1875 4.382812 0.046875 3.5625 0.046875 Z M 3.5625 0.046875 "/></g></g></g><g fill="#ffffff" fill-opacity="1"><g transform="translate(199.583657, 287.315636)"><g><path d="M 6.296875 -6.3125 L 6.296875 0 L 5.75 0 L 1.6875 -5.125 L 1.6875 0 L 1.03125 0 L 1.03125 -6.3125 L 1.578125 -6.3125 L 5.640625 -1.1875 L 5.640625 -6.3125 Z M 6.296875 -6.3125 "/></g></g></g><g fill="#ffffff" fill-opacity="1"><g transform="translate(210.212413, 287.315636)"><g><path d="M 1.03125 -6.3125 L 3.59375 -6.3125 C 4.257812 -6.3125 4.847656 -6.175781 5.359375 -5.90625 C 5.867188 -5.644531 6.265625 -5.273438 6.546875 -4.796875 C 6.835938 -4.316406 6.984375 -3.769531 6.984375 -3.15625 C 6.984375 -2.539062 6.835938 -1.992188 6.546875 -1.515625 C 6.265625 -1.035156 5.867188 -0.660156 5.359375 -0.390625 C 4.847656 -0.128906 4.257812 0 3.59375 0 L 1.03125 0 Z M 3.5625 -0.578125 C 4.113281 -0.578125 4.597656 -0.6875 5.015625 -0.90625 C 5.429688 -1.125 5.75 -1.425781 5.96875 -1.8125 C 6.195312 -2.195312 6.3125 -2.644531 6.3125 -3.15625 C 6.3125 -3.65625 6.195312 -4.097656 5.96875 -4.484375 C 5.75 -4.878906 5.429688 -5.1875 5.015625 -5.40625 C 4.597656 -5.625 4.113281 -5.734375 3.5625 -5.734375 L 1.6875 -5.734375 L 1.6875 -0.578125 Z M 3.5625 -0.578125 "/></g></g></g><g fill="#ffffff" fill-opacity="1"><g transform="translate(220.958323, 287.315636)"><g><path d="M 5.34375 0 L 3.890625 -2.03125 C 3.734375 -2.007812 3.566406 -2 3.390625 -2 L 1.6875 -2 L 1.6875 0 L 1.03125 0 L 1.03125 -6.3125 L 3.390625 -6.3125 C 4.191406 -6.3125 4.820312 -6.117188 5.28125 -5.734375 C 5.738281 -5.347656 5.96875 -4.816406 5.96875 -4.140625 C 5.96875 -3.648438 5.84375 -3.234375 5.59375 -2.890625 C 5.34375 -2.554688 4.988281 -2.3125 4.53125 -2.15625 L 6.0625 0 Z M 3.375 -2.5625 C 4 -2.5625 4.472656 -2.703125 4.796875 -2.984375 C 5.128906 -3.265625 5.296875 -3.648438 5.296875 -4.140625 C 5.296875 -4.648438 5.128906 -5.039062 4.796875 -5.3125 C 4.472656 -5.59375 4 -5.734375 3.375 -5.734375 L 1.6875 -5.734375 L 1.6875 -2.5625 Z M 3.375 -2.5625 "/></g></g></g><g fill="#ffffff" fill-opacity="1"><g transform="translate(230.776037, 287.315636)"><g><path d="M 4.984375 -1.6875 L 1.46875 -1.6875 L 0.71875 0 L 0.015625 0 L 2.90625 -6.3125 L 3.5625 -6.3125 L 6.453125 0 L 5.75 0 Z M 4.734375 -2.234375 L 3.234375 -5.609375 L 1.71875 -2.234375 Z M 4.734375 -2.234375 "/></g></g></g><g fill="#ffffff" fill-opacity="1"><g transform="translate(240.539678, 287.315636)"><g><path d="M 1.03125 -6.3125 L 1.6875 -6.3125 L 1.6875 0 L 1.03125 0 Z M 1.03125 -6.3125 "/></g></g></g><g fill="#ffffff" fill-opacity="1"><g transform="translate(246.56347, 287.315636)"><g><path d="M 2.765625 0.046875 C 2.296875 0.046875 1.847656 -0.0234375 1.421875 -0.171875 C 0.992188 -0.316406 0.660156 -0.515625 0.421875 -0.765625 L 0.6875 -1.28125 C 0.914062 -1.050781 1.21875 -0.863281 1.59375 -0.71875 C 1.96875 -0.582031 2.359375 -0.515625 2.765625 -0.515625 C 3.328125 -0.515625 3.75 -0.617188 4.03125 -0.828125 C 4.320312 -1.035156 4.46875 -1.300781 4.46875 -1.625 C 4.46875 -1.882812 4.390625 -2.085938 4.234375 -2.234375 C 4.078125 -2.390625 3.882812 -2.503906 3.65625 -2.578125 C 3.4375 -2.660156 3.128906 -2.75 2.734375 -2.84375 C 2.265625 -2.96875 1.890625 -3.082031 1.609375 -3.1875 C 1.328125 -3.300781 1.082031 -3.472656 0.875 -3.703125 C 0.675781 -3.929688 0.578125 -4.242188 0.578125 -4.640625 C 0.578125 -4.953125 0.660156 -5.238281 0.828125 -5.5 C 0.992188 -5.757812 1.25 -5.96875 1.59375 -6.125 C 1.945312 -6.28125 2.382812 -6.359375 2.90625 -6.359375 C 3.257812 -6.359375 3.609375 -6.304688 3.953125 -6.203125 C 4.304688 -6.109375 4.609375 -5.976562 4.859375 -5.8125 L 4.640625 -5.28125 C 4.367188 -5.445312 4.082031 -5.570312 3.78125 -5.65625 C 3.476562 -5.75 3.1875 -5.796875 2.90625 -5.796875 C 2.351562 -5.796875 1.9375 -5.6875 1.65625 -5.46875 C 1.375 -5.257812 1.234375 -4.988281 1.234375 -4.65625 C 1.234375 -4.394531 1.304688 -4.1875 1.453125 -4.03125 C 1.609375 -3.882812 1.800781 -3.769531 2.03125 -3.6875 C 2.269531 -3.601562 2.582031 -3.515625 2.96875 -3.421875 C 3.4375 -3.304688 3.8125 -3.191406 4.09375 -3.078125 C 4.382812 -2.972656 4.628906 -2.804688 4.828125 -2.578125 C 5.023438 -2.359375 5.125 -2.054688 5.125 -1.671875 C 5.125 -1.347656 5.035156 -1.054688 4.859375 -0.796875 C 4.691406 -0.535156 4.429688 -0.328125 4.078125 -0.171875 C 3.722656 -0.0234375 3.285156 0.046875 2.765625 0.046875 Z M 2.765625 0.046875 "/></g></g></g><g fill="#ffffff" fill-opacity="1"><g transform="translate(255.407921, 287.315636)"><g><path d="M 1.03125 -6.3125 L 1.6875 -6.3125 L 1.6875 0 L 1.03125 0 Z M 1.03125 -6.3125 "/></g></g></g><g fill="#ffffff" fill-opacity="1"><g transform="translate(261.431713, 287.315636)"><g><path d="M 6.296875 -6.3125 L 6.296875 0 L 5.75 0 L 1.6875 -5.125 L 1.6875 0 L 1.03125 0 L 1.03125 -6.3125 L 1.578125 -6.3125 L 5.640625 -1.1875 L 5.640625 -6.3125 Z M 6.296875 -6.3125 "/></g></g></g><g fill="#ffffff" fill-opacity="1"><g transform="translate(272.06047, 287.315636)"><g><path d="M 5.46875 -3.15625 L 6.109375 -3.15625 L 6.109375 -0.75 C 5.816406 -0.488281 5.46875 -0.289062 5.0625 -0.15625 C 4.664062 -0.0195312 4.242188 0.046875 3.796875 0.046875 C 3.160156 0.046875 2.585938 -0.0859375 2.078125 -0.359375 C 1.578125 -0.640625 1.179688 -1.023438 0.890625 -1.515625 C 0.609375 -2.003906 0.46875 -2.550781 0.46875 -3.15625 C 0.46875 -3.757812 0.609375 -4.304688 0.890625 -4.796875 C 1.179688 -5.285156 1.578125 -5.664062 2.078125 -5.9375 C 2.585938 -6.21875 3.160156 -6.359375 3.796875 -6.359375 C 4.285156 -6.359375 4.726562 -6.28125 5.125 -6.125 C 5.53125 -5.976562 5.875 -5.753906 6.15625 -5.453125 L 5.734375 -5.03125 C 5.234375 -5.519531 4.597656 -5.765625 3.828125 -5.765625 C 3.316406 -5.765625 2.851562 -5.648438 2.4375 -5.421875 C 2.03125 -5.203125 1.707031 -4.890625 1.46875 -4.484375 C 1.238281 -4.085938 1.125 -3.644531 1.125 -3.15625 C 1.125 -2.664062 1.238281 -2.21875 1.46875 -1.8125 C 1.707031 -1.414062 2.03125 -1.101562 2.4375 -0.875 C 2.851562 -0.65625 3.316406 -0.546875 3.828125 -0.546875 C 4.472656 -0.546875 5.019531 -0.707031 5.46875 -1.03125 Z M 5.46875 -3.15625 "/></g></g></g></svg>