<svg xmlns="http://www.w3.org/2000/svg" xmlns:xlink="http://www.w3.org/1999/xlink" width="500" zoomAndPan="magnify" viewBox="0 0 375 374.999991" height="500" preserveAspectRatio="xMidYMid meet" version="1.0"><defs><clipPath id="2b65fa0c1e"><path d="M 108 161.820312 L 202 161.820312 L 202 357.1875 L 108 357.1875 Z M 108 161.820312 " clip-rule="nonzero"/></clipPath><clipPath id="975623c186"><path d="M 288.058594 163 L 357.503906 163 L 357.503906 213 L 288.058594 213 Z M 288.058594 163 " clip-rule="nonzero"/></clipPath><clipPath id="e09b7c496d"><path d="M 17.753906 163 L 88 163 L 88 213 L 17.753906 213 Z M 17.753906 163 " clip-rule="nonzero"/></clipPath></defs><rect x="-37.5" width="450" fill="#ffffff" y="-37.499999" height="449.999989" fill-opacity="1"/><rect x="-37.5" width="450" fill="#63a731" y="-37.499999" height="449.999989" fill-opacity="1"/><path fill="#ffffff" d="M 252.476562 157.820312 C 252.476562 157.820312 259.078125 186.011719 234.007812 196.984375 C 226.253906 200.375 218.410156 204.285156 206.476562 206.414062 C 206.476562 206.414062 227.070312 248.917969 195.035156 303.601562 C 195.035156 303.601562 227.664062 272.019531 228.519531 227.261719 C 228.519531 227.261719 231.679688 222.054688 252.476562 200.449219 C 260.4375 192.171875 262.160156 170.609375 252.476562 157.820312 " fill-opacity="1" fill-rule="nonzero"/><g clip-path="url(#2b65fa0c1e)"><path fill="#ffffff" d="M 113.175781 161.960938 C 113.175781 161.960938 109.464844 198.28125 151.410156 202.027344 C 189.160156 205.402344 201.820312 203.734375 201.820312 224.320312 C 201.820312 247.058594 198.964844 323.089844 116.695312 357.1875 C 116.695312 357.1875 192.535156 306.464844 173.820312 236.128906 C 166.125 207.234375 127.59375 227.148438 113.339844 200.71875 C 101.78125 179.285156 113.175781 161.960938 113.175781 161.960938 " fill-opacity="1" fill-rule="nonzero"/></g><path fill="#ffffff" d="M 207.921875 182.539062 C 209.972656 190.800781 205.96875 198.898438 198.984375 200.636719 C 191.988281 202.371094 184.660156 197.085938 182.609375 188.824219 C 180.554688 180.566406 184.566406 172.46875 191.558594 170.734375 C 198.542969 168.996094 205.875 174.28125 207.921875 182.539062 " fill-opacity="1" fill-rule="nonzero"/><path fill="#ffffff" d="M 187.390625 18.046875 C 187.390625 18.046875 162.75 49.5 162.75 66.117188 C 162.75 79.140625 171.8125 85.296875 180.488281 87.359375 C 182.378906 64.964844 187.390625 37.191406 187.390625 37.191406 C 187.390625 37.191406 192.359375 64.707031 194.269531 87.042969 C 202.167969 84.714844 212.035156 78.539062 212.035156 66.117188 C 212.035156 49.5 187.390625 18.046875 187.390625 18.046875 " fill-opacity="1" fill-rule="nonzero"/><path fill="#ffffff" d="M 307.609375 67.621094 C 307.609375 67.621094 267.941406 72.4375 256.191406 84.191406 C 246.984375 93.394531 249.035156 104.15625 253.714844 111.746094 C 270.890625 97.253906 294.074219 81.164062 294.074219 81.164062 C 294.074219 81.164062 278.128906 104.128906 263.683594 121.277344 C 270.917969 125.210938 282.257812 127.824219 291.039062 119.039062 C 302.796875 107.285156 307.609375 67.621094 307.609375 67.621094 " fill-opacity="1" fill-rule="nonzero"/><g clip-path="url(#975623c186)"><path fill="#ffffff" d="M 357.5625 187.683594 C 357.5625 187.683594 326.101562 163.039062 309.484375 163.039062 C 296.464844 163.039062 290.304688 172.105469 288.25 180.777344 C 310.640625 182.671875 338.410156 187.683594 338.410156 187.683594 C 338.410156 187.683594 310.898438 192.648438 288.558594 194.5625 C 290.890625 202.460938 297.066406 212.328125 309.484375 212.328125 C 326.109375 212.328125 357.5625 187.683594 357.5625 187.683594 " fill-opacity="1" fill-rule="nonzero"/></g><g clip-path="url(#e09b7c496d)"><path fill="#ffffff" d="M 17.753906 188.210938 C 17.753906 188.210938 49.210938 212.855469 65.828125 212.855469 C 78.847656 212.855469 85.007812 203.792969 87.066406 195.121094 C 64.671875 193.226562 36.90625 188.210938 36.90625 188.210938 C 36.90625 188.210938 64.414062 183.246094 86.757812 181.332031 C 84.417969 173.433594 78.253906 163.566406 65.824219 163.566406 C 49.207031 163.566406 17.753906 188.210938 17.753906 188.210938 " fill-opacity="1" fill-rule="nonzero"/></g><path fill="#ffffff" d="M 67.328125 67.992188 C 67.328125 67.992188 72.148438 107.660156 83.898438 119.417969 C 93.109375 128.621094 103.871094 126.566406 111.457031 121.886719 C 96.960938 104.71875 80.875 81.535156 80.875 81.535156 C 80.875 81.535156 103.835938 97.480469 120.988281 111.917969 C 124.917969 104.691406 127.535156 93.34375 118.746094 84.5625 C 106.996094 72.804688 67.328125 67.992188 67.328125 67.992188 " fill-opacity="1" fill-rule="nonzero"/></svg>